Patient4_TMGait_0pt7_02_left_26_EMG.mot
version=1
nRows=33
nColumns=33
inDegrees=no
endheader
time	1LAddLong	2LGlutMax	3LGlutMed	4LIliopsoas	5LSemiMemb	6LBicFemLong	7LRecFem	8LVastMed	9LVastLat	10LGasMed	11LTibAnt	12lTibPost	13LPeroneusLong	14LSol	15LExtDigLong	16LFlexDigLong	17RAddLong	18RGlutMax	19RGlutMed	20RIliopsoas	21RSemiMemb	22RBicFemLong	23RRecFem	24RVastMed	25RVastLat	26RGasMed	27RTibAnt	28RTibPost	29RPeroneusLong	30RSol	31RExtDigLong	32RFlexDigLong
30.815	0.006561	-0.032196	-0.19791	0.010986	-0.029297	0.075684	-0.068054	0.002136	0.012512	0.037689	0.045013	0.005493	0.053558	-0.05661	0.042572	-0.00885	0.011444	-0.15823	0.055084	-0.001068	-0.066376	-0.047455	-0.054016	-0.2739	0.2034	-0.006409	-0.57892	-0.006256	0.011749	-0.06897	0.003204	-0.009308
30.816	0.011902	-0.058899	-0.27573	-0.018158	-0.11353	-0.017548	-0.064545	0.003662	0.012054	0.046844	0.036163	0.012054	0.061798	-0.055237	-0.001831	0	0.037842	-0.13855	0.03479	0.013123	-0.072327	-0.071869	-0.086823	-0.12894	0.35797	0.005493	1.1281	-0.006104	-0.036163	-0.21225	-0.00061	-0.006561
30.817	0.015411	-0.077362	-0.25757	-0.009766	-0.071259	-0.052338	-0.083008	0.00473	0.001221	0.033112	0.068207	-0.005341	0.060425	-0.042267	-0.001526	0.007629	-0.008087	-0.16708	-0.36484	0.062561	0.019989	-0.042725	-0.32089	0.19043	0.78659	0.032349	0.50797	-0.011444	0.36041	-0.34958	-0.001678	-0.002441
30.818	0.02182	-0.098724	-0.12299	-0.00946	0.048523	-0.085144	-0.061188	0.00061	0.009613	0.001068	0.010223	0.005493	0.047302	-0.021973	0.010376	0.007782	-0.011902	-0.11917	0.2742	-0.005035	0.030975	-0.029449	-0.13763	0.42023	0.70648	0.015106	-0.59906	-0.01358	0.12726	-0.13412	0.000458	-0.009613
30.819	0.029449	-0.14313	0.047455	0.016785	0.088043	-0.054626	-0.078583	0.004883	0.008698	-0.010376	-0.020752	0.015564	0.034027	-0.018921	-0.01358	-0.001068	-0.002747	-0.14832	0.20309	0.007782	0.001678	-0.056305	-0.040436	0.2684	0.39002	-0.008698	-1.0448	-0.013885	-0.17364	0.029144	0.000153	-0.012054
30.82	0.024872	-0.16022	-0.086975	0.014954	0.064392	-0.039673	-0.075531	0.00885	0.000458	-0.040894	0.023346	-0.001526	0.023193	-0.007935	-0.00824	-0.11948	0.007477	-0.15778	0.13016	0.026703	-0.036316	-0.05249	-0.24292	0.028687	0.11429	-0.012665	-0.56	-0.007629	-0.28839	0.06424	0.000916	-0.015106
30.821	0.02655	-0.14236	-0.18219	0.024872	0.043945	-0.048676	-0.08667	0.002441	0.010986	-0.042114	0.053711	0.011444	0.014801	-0.041962	-0.029297	-0.35004	0.009003	-0.15625	0.77087	0.076141	-0.032959	-0.025024	-0.12894	-0.1828	-0.159	-0.017395	-0.29678	-0.012207	-0.19669	0.057373	-0.000153	-0.015106
30.822	0.016022	-0.18051	-0.094147	0.035553	0.039825	-0.085144	-0.090332	0.006256	0.005646	-0.028381	0.050507	0.012207	0.047455	-0.044861	-0.009766	0.68268	0.004425	-0.14572	0.43961	0.066071	-0.038605	-0.013275	0.11047	-0.22446	-0.46982	-0.006104	0.61951	-0.010681	-0.14923	0.050507	0.000305	-0.007629
30.823	0.014496	-0.18478	0.046997	-0.000305	0.01297	-0.13672	-0.072784	-0.001068	0.00351	-0.022583	0.088196	-0.004425	0.054474	-0.023956	0.054779	0.016327	0.01358	-0.12421	0.23712	-0.019531	-0.000305	-0.032196	0.3981	-0.092926	-0.38773	-0.006561	1.0329	-0.013428	-0.22217	0.038605	0.002899	-0.012817
30.824	0.016479	-0.19898	0.2681	-0.009003	-0.012665	-0.054016	-0.091858	0.008392	0.005493	-0.015717	0.11215	0.011597	0.028687	-0.059814	0.43259	0.001678	0.019379	-0.084076	-0.11795	-0.11566	0.072021	-0.054932	0.46295	-0.012665	-0.14404	0.003052	-0.09613	-0.013123	0.012054	-0.045013	0.000458	0.000153
30.825	0.009766	-0.13092	0.22888	-0.011139	-0.060577	-0.04776	-0.10651	0.003662	0.015564	-0.011597	0.05188	0.014496	0.00824	-0.088959	0.5275	-0.40329	0.007019	-0.084076	-0.4628	-0.17838	0.042267	-0.056915	0.31647	0.016937	-0.06424	0.007477	0.020142	-0.007172	0.13016	-0.16922	0.002899	-0.006561
30.826	0.007782	-0.17731	0.10086	-0.004272	-0.040436	-0.050201	-0.10559	0.005341	0.007782	-0.030212	-0.056915	0.00824	0.063934	-0.024261	-0.42053	0.24674	0.000305	-0.086212	-0.24414	-0.090637	-0.099182	-0.040283	0.095367	-0.054474	-0.024109	0.007019	-0.14801	-0.015259	0.13901	-0.14587	0.003052	0.001526
30.827	-0.014191	-0.19745	0.04364	0.004883	0.021515	-0.037384	-0.10223	-0.00061	0.00473	-0.037384	-0.063782	-0.000153	0.10284	-0.041504	-0.33783	-0.13306	0	-0.11292	-0.1062	-0.023193	-0.081482	-0.01709	-0.004272	-0.12558	0.11124	-0.002289	-0.504	-0.011139	0.053253	-0.025482	0.002747	-0.015259
30.828	-0.009003	-0.20248	-0.020142	0.020752	0.027924	-0.033569	-0.092468	0.003815	0.003052	-0.041504	-0.00946	0.009766	0.11688	-0.13321	-0.33646	0.040894	0.002441	-0.05722	-0.39856	0.038452	-0.03952	-0.063477	0.09903	-0.066528	0.1207	-0.007019	-0.47455	-0.012512	-0.081482	0.11673	0.001678	-0.013275
30.829	-0.003204	-0.21393	-0.034485	0.018921	0.040894	-0.006561	-0.08606	-0.002441	0.002594	-0.029602	0.026703	0.01236	0.088501	-0.20248	-0.15137	0.33066	0.003967	-0.039673	-0.81619	0.072937	0.014038	-0.032349	0.046387	0.1001	0.054932	-0.013733	-0.027771	-0.011902	-0.15518	0.14877	0.00061	-0.017395
30.83	-0.003357	-0.21591	-0.041809	-0.005341	0.032501	0.039063	-0.080872	-0.016327	-0.006714	-0.035858	0.036316	-0.000153	0.027924	-0.17136	-0.021667	-0.27588	-0.009613	-0.074768	-0.72281	0.027924	0.054626	-0.023193	-0.15137	0.14786	0.00824	-0.003662	0.012512	-0.008392	-0.050812	0.002136	0.001221	-0.01297
30.831	0.014496	-0.1683	-0.028992	-0.017395	0.032043	0.02182	-0.087585	0.005798	-0.00885	-0.038605	0.021973	0.007629	0.008392	-0.079041	0.015106	0.02121	0.008087	-0.043488	-0.090942	-0.033569	0.046387	-0.036926	-0.18845	0.070801	-0.031738	-0.001221	-0.14069	-0.011139	-0.013428	-0.002136	-0.002441	-0.012817
30.832	0.010986	-0.1799	-0.006104	-0.013123	0.068665	-0.009155	-0.10773	0.005035	0.010681	-0.037079	0.040741	0.00412	-0.004425	-0.14572	0.046234	0.078583	0.000916	-0.067902	0.49027	-0.091553	0.003967	-0.016327	-0.027924	0.023804	0.061646	-0.013275	0.10483	-0.012665	-0.19012	0.11978	0.00351	-0.011902
30.833	0.019073	-0.20416	-0.025177	-0.005646	0.001068	-0.069122	-0.097198	0.001526	0.004425	-0.045319	0.027161	0.004425	-0.02121	-0.12665	0.039063	0.023346	0	-0.093079	0.56793	-0.04303	-0.042419	-0.046844	0.021362	0.057373	0.11032	-0.00824	0.43793	-0.011292	-0.25528	0.11215	0.001526	-0.016785
30.834	0.025177	-0.21225	-0.026703	0.001984	-0.023346	-0.14343	-0.096283	0.003662	-0.00061	-0.042419	0.01709	0.008698	0.003052	-0.11566	0.049286	0.002441	-0.028687	-0.070953	0.53787	-0.038452	-0.080261	-0.038147	-0.018463	0.050049	0.10773	-0.012817	0.42969	-0.012512	-0.21027	0.084534	0.001831	-0.015869
30.835	0.027618	-0.20676	-0.042725	0.001068	0.042572	-0.11139	-0.083313	-0.007172	0.00351	-0.048523	0.015869	0.008392	0.003204	-0.11139	0.011139	-0.002747	0.004883	-0.039215	0.50369	0.029907	-0.018616	-0.08606	0.044098	0.059814	0.081024	-0.014343	0.19073	-0.012054	-0.12054	0.038452	-0.003967	-0.011139
30.836	0.02182	-0.21835	-0.049744	-0.000916	0.04364	-0.044098	-0.082397	0.001678	-0.011292	-0.038147	0.053101	-0.001068	0.000763	-0.077972	-0.02655	-0.005798	0.003815	-0.032501	-0.3714	0.058899	-0.16769	-0.077972	0.094604	-0.017242	0.040436	-0.011444	-0.0177	-0.009155	-0.10315	-0.000305	0.000763	-0.00824
30.837	0.016174	-0.19196	-0.061798	0.034332	0.019836	-0.023651	-0.079803	0.007629	0.000763	-0.044708	0.080566	0.00885	0.016937	-0.048523	-0.019531	-0.019226	0.007324	-0.033875	0.12543	0.06073	-0.025482	-0.058441	0.27252	-0.019073	0.033264	-0.009155	-0.10254	-0.014191	-0.12039	-0.002136	0.001526	-0.002441
30.838	0.016174	-0.19928	-0.062866	0.030212	0.01297	-0.020905	-0.085602	0.003662	0.003662	-0.041046	0.067139	0.014954	0.0354	-0.003052	0.036469	-0.01358	0.007172	0.019073	0.50018	0.018768	-0.04364	-0.0177	0.20844	0.031281	0.097504	-0.001678	0.17838	-0.004578	-0.15366	0.036926	0.00351	-0.003662
30.839	0.010529	-0.2034	-0.056	0.017395	0.039063	-0.020599	-0.052795	0.007935	0.004272	-0.036774	-0.026703	0.012054	0.056915	0.06424	0.066681	-0.028534	0.001526	-0.048828	0.25497	-0.060577	-0.17853	0.033722	0.074463	0.036163	0.14557	0.000153	0.36652	-0.012665	-0.22446	0.030823	0.003662	-0.001526
30.84	0.005341	-0.19379	-0.059357	0.001678	0.03418	0.03418	-0.055695	0.005798	-0.003662	-0.031738	-0.033417	0.010071	-0.003662	0.088959	0.062408	-0.036926	-0.031586	-0.059052	0.044403	-0.022278	-0.20279	0.10056	-0.10147	-0.011139	0.10696	-0.015259	0.44342	-0.011749	-0.20447	-0.016174	0.004883	-0.012817
30.841	-0.002594	-0.19409	-0.065308	0.005798	0.041046	0.045471	-0.042725	0.011444	0.001221	-0.023193	-0.011597	0.009766	0.007629	-0.036469	0.071106	-0.010681	-0.029602	-0.023804	0.10956	0.039368	0.008087	0.091705	0.017395	-0.002594	0.080261	-0.016937	0.24155	-0.015411	-0.12665	-0.08606	0.000916	-0.009155
30.842	-0.000153	-0.16846	-0.068665	0.015259	0.001984	0.060883	-0.048523	0.008545	0.001526	-0.046539	-0.010223	0.007782	0.006409	-0.10483	0.071869	0.021057	-0.029907	-0.065613	0.39276	0.14511	0.21988	0.097809	0.21805	0.03952	0.05188	-0.020447	0.16129	-0.012207	-0.11383	-0.10712	-0.004272	-0.009308
30.843	-0.009918	-0.15442	-0.084991	0.018311	-0.052643	0.071564	-0.034637	0.00824	-0.001526	-0.038452	0.012207	0.018921	0.049133	-0.14191	0.074463	0.02533	-0.02533	-0.05188	-0.2504	0.17822	0.093994	0.04837	0.3624	0.091553	-0.12192	-0.012665	0.000916	-0.01358	-0.11185	-0.14236	0	-0.00946
30.844	-0.008698	-0.1207	-0.12894	0.000305	-0.087891	0.023346	-0.006714	0.005798	-0.006561	-0.040741	0.036316	0.014954	0.048218	-0.05249	0.041046	0.01709	-0.032043	-0.069733	-0.37201	0.12665	0.052338	0.026703	0.28275	0.15427	-0.29205	-0.005646	0.091858	-0.008087	-0.098877	-0.26321	0.001373	-0.007324
30.845	-0.007629	-0.14008	-0.13718	-0.007782	-0.15076	-0.074463	-0.02182	0.005188	0.004578	-0.023346	0.048218	0.016785	0.006409	0.001526	0.033875	0.00885	-0.014496	-0.058594	-0.24826	0.029297	0.05127	0.044708	0.4422	-0.029755	-0.2002	0.003204	0.27588	-0.012207	-0.060577	-0.17425	0.00351	-0.009613
30.846	0.010529	-0.12207	-0.10223	-0.000763	-0.049591	-0.1416	-0.018158	0.005493	0.015259	-0.043945	0.02655	0.012512	-0.00885	0.029449	0.007324	-0.0177	-0.007935	0.057831	-0.02655	0.057068	0.057068	0.048523	0.29388	-0.093231	-0.12558	-0.000916	0.48813	-0.009918	-0.032501	-0.037079	0.005188	-0.014496
30.847	0.023804	-0.11444	-0.10666	-0.002899	0.14786	-0.15259	-0.037994	-0.009155	0.010986	-0.041809	0.03952	0.013733	-0.041046	-0.011597	-0.016937	-0.012665	-0.016785	0.034943	0.0383	0.01297	-0.019684	0.046844	-0.3772	-0.064697	-0.080414	-0.007629	0.57861	-0.011139	-0.020294	0.019379	0.006409	-0.014954
